<svg width="455" height="455" viewBox="0 0 455 455" fill="none" xmlns="http://www.w3.org/2000/svg">
<path d="M189.583 94.7917L227.5 56.875M151.667 303.333L303.333 151.667M227.5 398.125L265.417 360.208M312.813 360.208C325.383 360.208 337.438 355.215 346.326 346.326C355.215 337.438 360.208 325.383 360.208 312.813C360.208 300.242 355.215 288.187 346.326 279.299C337.438 270.41 325.383 265.417 312.813 265.417C300.242 265.417 288.187 270.41 279.299 279.299C270.41 288.187 265.417 300.242 265.417 312.813C265.417 325.383 270.41 337.438 279.299 346.326C288.187 355.215 300.242 360.208 312.813 360.208ZM142.188 189.583C154.758 189.583 166.813 184.59 175.701 175.701C184.59 166.813 189.583 154.758 189.583 142.188C189.583 129.617 184.59 117.562 175.701 108.674C166.813 99.7851 154.758 94.7917 142.188 94.7917C129.617 94.7917 117.562 99.7851 108.674 108.674C99.7851 117.562 94.7917 129.617 94.7917 142.188C94.7917 154.758 99.7851 166.813 108.674 175.701C117.562 184.59 129.617 189.583 142.188 189.583ZM104.271 398.125C116.841 398.125 128.896 393.132 137.785 384.243C146.673 375.355 151.667 363.299 151.667 350.729C151.667 338.159 146.673 326.104 137.785 317.215C128.896 308.327 116.841 303.333 104.271 303.333C91.7007 303.333 79.6454 308.327 70.7569 317.215C61.8685 326.104 56.875 338.159 56.875 350.729C56.875 363.299 61.8685 375.355 70.7569 384.243C79.6454 393.132 91.7007 398.125 104.271 398.125ZM350.729 151.667C363.299 151.667 375.355 146.673 384.243 137.785C393.132 128.896 398.125 116.841 398.125 104.271C398.125 91.7007 393.132 79.6454 384.243 70.7569C375.355 61.8685 363.299 56.875 350.729 56.875C338.159 56.875 326.104 61.8685 317.215 70.7569C308.327 79.6454 303.333 91.7007 303.333 104.271C303.333 116.841 308.327 128.896 317.215 137.785C326.104 146.673 338.159 151.667 350.729 151.667Z" stroke="#C33531" stroke-width="4" stroke-linecap="round" stroke-linejoin="round"/>
</svg>
