<svg width="24" height="24" viewBox="0 0 24 24" fill="none" xmlns="http://www.w3.org/2000/svg">
<path d="M19.8711 8.62594H16.9704L20.6693 4.92698C20.8811 4.71527 21 4.42813 21 4.12872C21 3.82932 20.8811 3.54218 20.6693 3.33047C20.4576 3.11875 20.1705 2.99982 19.8711 2.99982C19.5717 2.99982 19.2845 3.11875 19.0728 3.33047L15.3739 7.01819V4.12872C15.3739 3.83054 15.2554 3.54457 15.0446 3.33372C14.8337 3.12287 14.5478 3.00442 14.2496 3.00442C13.9514 3.00442 13.6654 3.12287 13.4546 3.33372C13.2437 3.54457 13.1253 3.83054 13.1253 4.12872V9.75025C13.1253 10.0484 13.2437 10.3344 13.4546 10.5453C13.6654 10.7561 13.9514 10.8746 14.2496 10.8746H19.8711C20.1693 10.8746 20.4552 10.7561 20.6661 10.5453C20.8769 10.3344 20.9954 10.0484 20.9954 9.75025C20.9954 9.45206 20.8769 9.16609 20.6661 8.95524C20.4552 8.7444 20.1693 8.62594 19.8711 8.62594ZM9.75235 13.1232H4.13082C3.83264 13.1232 3.54667 13.2416 3.33582 13.4525C3.12497 13.6633 3.00652 13.9493 3.00652 14.2475C3.00652 14.5457 3.12497 14.8316 3.33582 15.0425C3.54667 15.2533 3.83264 15.3718 4.13082 15.3718H7.02029L3.33257 19.0707C3.22719 19.1753 3.14355 19.2996 3.08647 19.4366C3.02939 19.5736 3 19.7206 3 19.869C3 20.0174 3.02939 20.1644 3.08647 20.3014C3.14355 20.4384 3.22719 20.5627 3.33257 20.6672C3.43709 20.7726 3.56144 20.8563 3.69844 20.9133C3.83545 20.9704 3.9824 20.9998 4.13082 20.9998C4.27925 20.9998 4.4262 20.9704 4.56321 20.9133C4.70021 20.8563 4.82456 20.7726 4.92908 20.6672L8.62804 16.9683V19.869C8.62804 20.1672 8.7465 20.4531 8.95735 20.664C9.16819 20.8748 9.45416 20.9933 9.75235 20.9933C10.0505 20.9933 10.3365 20.8748 10.5474 20.664C10.7582 20.4531 10.8767 20.1672 10.8767 19.869V14.2475C10.8767 13.9493 10.7582 13.6633 10.5474 13.4525C10.3365 13.2416 10.0505 13.1232 9.75235 13.1232Z" fill="white"/>
</svg>
