<svg width="60" height="60" viewBox="0 0 60 60" fill="none" xmlns="http://www.w3.org/2000/svg">
<path fill-rule="evenodd" clip-rule="evenodd" d="M39.3125 55V35.6375H45.8125L46.785 28.0925H39.31V23.275C39.31 21.09 39.9175 19.6 43.0525 19.6H47.0475V12.85C45.1127 12.6441 43.1682 12.544 41.2225 12.55C35.4625 12.55 31.52 16.0675 31.52 22.525V28.0925H25V35.6375H31.5175V55H7.76C6.235 55 5 53.765 5 52.24V7.76C5 6.235 6.235 5 7.76 5H52.24C53.765 5 55 6.235 55 7.76V52.24C55 53.765 53.765 55 52.24 55H39.3125Z" fill="#E8E8E8"/>
</svg>
