<svg width="30" height="30" viewBox="0 0 30 30" fill="none" xmlns="http://www.w3.org/2000/svg">
<path fill-rule="evenodd" clip-rule="evenodd" d="M3.75 13.5833C3.75 8.15253 8.15253 3.75 13.5833 3.75C19.0141 3.75 23.4167 8.15253 23.4167 13.5833C23.4167 16.2302 22.3709 18.6328 20.67 20.4005C20.6202 20.4391 20.5724 20.4812 20.5267 20.5268C20.481 20.5725 20.4389 20.6204 20.4004 20.6701C18.6327 22.3709 16.2301 23.4167 13.5833 23.4167C8.15253 23.4167 3.75 19.0141 3.75 13.5833ZM21.5353 23.6568C19.349 25.385 16.5866 26.4167 13.5833 26.4167C6.49568 26.4167 0.75 20.671 0.75 13.5833C0.75 6.49568 6.49568 0.75 13.5833 0.75C20.671 0.75 26.4167 6.49568 26.4167 13.5833C26.4167 16.5867 25.385 19.3491 23.6566 21.5355L28.8105 26.6893C29.3963 27.2751 29.3963 28.2249 28.8105 28.8107C28.2247 29.3964 27.275 29.3964 26.6892 28.8107L21.5353 23.6568Z" fill="#C33531"/>
</svg>
