<svg width="40" height="40" viewBox="0 0 40 40" fill="none" xmlns="http://www.w3.org/2000/svg">
<path fill-rule="evenodd" clip-rule="evenodd" d="M6.5 18.3333C6.5 11.798 11.798 6.5 18.3333 6.5C24.8687 6.5 30.1667 11.798 30.1667 18.3333C30.1667 21.5259 28.9024 24.4232 26.8472 26.5518C26.7921 26.5933 26.7393 26.6392 26.6892 26.6893C26.639 26.7395 26.5932 26.7923 26.5516 26.8473C24.423 28.9024 21.5258 30.1667 18.3333 30.1667C11.798 30.1667 6.5 24.8687 6.5 18.3333ZM27.7079 29.8294C25.1528 31.9155 21.8892 33.1667 18.3333 33.1667C10.1411 33.1667 3.5 26.5256 3.5 18.3333C3.5 10.1411 10.1411 3.5 18.3333 3.5C26.5256 3.5 33.1667 10.1411 33.1667 18.3333C33.1667 21.8892 31.9154 25.1529 29.8292 27.7081L36.0605 33.9393C36.6463 34.5251 36.6463 35.4749 36.0605 36.0607C35.4747 36.6464 34.525 36.6464 33.9392 36.0607L27.7079 29.8294Z" fill="black"/>
</svg>
