<svg width="40" height="40" viewBox="0 0 40 40" fill="none" xmlns="http://www.w3.org/2000/svg">
<path fill-rule="evenodd" clip-rule="evenodd" d="M20 3.3335C15.3976 3.3335 11.6667 7.06446 11.6667 11.6668C11.6667 16.2692 15.3976 20.0002 20 20.0002C24.6024 20.0002 28.3333 16.2692 28.3333 11.6668C28.3333 7.06446 24.6024 3.3335 20 3.3335ZM15 11.6668C15 8.90541 17.2386 6.66683 20 6.66683C22.7614 6.66683 25 8.90541 25 11.6668C25 14.4283 22.7614 16.6668 20 16.6668C17.2386 16.6668 15 14.4283 15 11.6668Z" fill="black"/>
<path d="M13.3333 23.3335C11.1232 23.3335 9.00358 24.2115 7.44078 25.7743C5.87797 27.3371 5 29.4567 5 31.6668V35.0002C5 35.9206 5.74619 36.6668 6.66667 36.6668C7.58714 36.6668 8.33333 35.9206 8.33333 35.0002V31.6668C8.33333 30.3407 8.86012 29.069 9.7978 28.1313C10.7355 27.1936 12.0073 26.6668 13.3333 26.6668H26.6667C27.9927 26.6668 29.2645 27.1936 30.2022 28.1313C31.1399 29.069 31.6667 30.3407 31.6667 31.6668V35.0002C31.6667 35.9206 32.4129 36.6668 33.3333 36.6668C34.2538 36.6668 35 35.9206 35 35.0002V31.6668C35 29.4567 34.122 27.3371 32.5592 25.7743C30.9964 24.2115 28.8768 23.3335 26.6667 23.3335H13.3333Z" fill="black"/>
</svg>
