<svg width="32" height="18" viewBox="0 0 32 18" fill="none" xmlns="http://www.w3.org/2000/svg">
<path d="M11.5 16.5H8.5C6.51088 16.5 4.60322 15.7098 3.1967 14.3033C1.79018 12.8968 1 10.9891 1 9C1 7.01088 1.79018 5.10322 3.1967 3.6967C4.60322 2.29018 6.51088 1.5 8.5 1.5H11.5M20.5 1.5H23.5C25.4891 1.5 27.3968 2.29018 28.8033 3.6967C30.2098 5.10322 31 7.01088 31 9C31 10.9891 30.2098 12.8968 28.8033 14.3033C27.3968 15.7098 25.4891 16.5 23.5 16.5H20.5M10 9H22" stroke="black" stroke-width="2" stroke-linecap="round" stroke-linejoin="round"/>
</svg>
