<?xml version="1.0" encoding="utf-8"?>
<!-- Generator: Adobe Illustrator 16.0.0, SVG Export Plug-In . SVG Version: 6.00 Build 0)  -->
<!DOCTYPE svg PUBLIC "-//W3C//DTD SVG 1.1//EN" "http://www.w3.org/Graphics/SVG/1.1/DTD/svg11.dtd">
<svg version="1.1" id="Layer_1" xmlns="http://www.w3.org/2000/svg" xmlns:xlink="http://www.w3.org/1999/xlink" x="0px" y="0px"
	 width="1000px" height="168px" viewBox="0 0 1000 168" style="enable-background:new 0 0 1000 168;" xml:space="preserve">
<path style="fill:#C93733;" d="M263.42,148.89h-33.4l-0.52-17.61c-3.8,6.73-9.41,12.04-16.83,15.92
	c-7.42,3.88-15.79,5.83-25.11,5.83c-13.64,0-24.46-3.75-32.49-11.26c-8.03-7.51-12.04-17.56-12.04-30.16
	c0-13.11,4.83-23.69,14.5-31.71c9.66-8.03,22.43-12.04,38.31-12.04c12.08,0,22.95,1.99,32.62,5.96
	c-0.18-21.23-11.22-31.85-33.14-31.85c-14.5,0-28.31,4.32-41.43,12.95l-2.85-29.26c6.04-3.97,13.5-7.12,22.39-9.45
	c8.89-2.33,17.82-3.49,26.8-3.49c20.54,0,36.2,5.14,46.99,15.4c10.79,10.27,16.18,25.16,16.18,44.66V148.89z M220.05,118.59
	c5.09-5.52,7.89-13.2,8.42-23.04c-7.6-3.45-16.05-5.18-25.37-5.18c-8.12,0-14.37,1.6-18.77,4.79c-4.4,3.2-6.6,7.81-6.6,13.85
	c0,5.7,1.85,10.1,5.57,13.2c3.71,3.11,8.76,4.66,15.14,4.66C207.75,126.88,214.96,124.12,220.05,118.59"/>
<path style="fill:#C93733;" d="M285.16,112.12c6.21,4.14,13.2,7.38,20.97,9.71c7.77,2.33,15.27,3.49,22.53,3.49
	c14.84,0,22.26-4.23,22.26-12.68c0-3.97-1.55-7.08-4.66-9.32c-3.11-2.24-9.58-4.75-19.42-7.51c-15.88-4.31-27.15-9.67-33.79-16.05
	c-6.65-6.38-9.97-15.1-9.97-26.15c0-12.77,4.79-22.78,14.37-30.03c9.58-7.25,22.74-10.87,39.48-10.87c8.29,0,16.57,0.95,24.86,2.85
	c8.29,1.9,15.1,4.4,20.45,7.51l-4.4,27.44c-12.95-6.73-25.98-10.1-39.1-10.1c-12.94,0-19.42,3.97-19.42,11.91
	c0,3.8,1.64,6.82,4.92,9.06c3.28,2.25,9.4,4.58,18.38,6.99c16.57,4.83,28.35,10.53,35.34,17.09c6.99,6.56,10.49,15.45,10.49,26.67
	c0,12.6-5.14,22.57-15.41,29.9c-10.27,7.33-24.38,11-42.33,11c-9.49,0-18.86-1.21-28.09-3.63c-9.23-2.41-16.61-5.52-22.14-9.32
	L285.16,112.12z"/>
<path style="fill:#C93733;" d="M402.19,112.12c6.21,4.14,13.2,7.38,20.97,9.71c7.76,2.33,15.27,3.49,22.52,3.49
	c14.84,0,22.27-4.23,22.27-12.68c0-3.97-1.55-7.08-4.66-9.32c-3.11-2.24-9.58-4.75-19.42-7.51c-15.88-4.31-27.14-9.67-33.79-16.05
	c-6.65-6.38-9.97-15.1-9.97-26.15c0-12.77,4.79-22.78,14.37-30.03c9.58-7.25,22.74-10.87,39.48-10.87c8.29,0,16.57,0.95,24.85,2.85
	c8.28,1.9,15.1,4.4,20.45,7.51l-4.4,27.44c-12.95-6.73-25.98-10.1-39.09-10.1c-12.95,0-19.42,3.97-19.42,11.91
	c0,3.8,1.64,6.82,4.92,9.06c3.28,2.25,9.41,4.58,18.38,6.99c16.57,4.83,28.35,10.53,35.34,17.09c6.99,6.56,10.48,15.45,10.48,26.67
	c0,12.6-5.14,22.57-15.41,29.9c-10.27,7.33-24.38,11-42.33,11c-9.49,0-18.86-1.21-28.09-3.63c-9.24-2.41-16.61-5.52-22.14-9.32
	L402.19,112.12z"/>
<path style="fill:#C93733;" d="M525.81,47.01c6.12-10.53,14.67-18.77,25.63-24.72c10.96-5.96,23.6-8.93,37.93-8.93
	c7.59,0,15.31,0.91,23.17,2.72c7.85,1.81,14.45,4.27,19.8,7.38l-4.66,31.59c-11.22-5.35-22.78-8.03-34.69-8.03
	c-11.74,0-21.06,3.19-27.96,9.58c-6.91,6.39-10.36,15.1-10.36,26.15c0,11.22,3.5,20.03,10.48,26.41c6.99,6.39,16.7,9.58,29.13,9.58
	c5.7,0,11.43-0.6,17.22-1.81c5.78-1.21,11.86-3.19,18.25-5.96l4.14,31.07c-5.87,3.28-12.73,5.82-20.58,7.64
	c-7.85,1.81-15.75,2.72-23.69,2.72c-14.67,0-27.49-2.81-38.45-8.42c-10.96-5.6-19.46-13.59-25.5-23.95
	c-6.04-10.36-9.06-22.52-9.06-36.5C516.62,69.71,519.68,57.54,525.81,47.01"/>
<path style="fill:#C93733;" d="M715.2,153.03c-13.64,0-25.85-3.07-36.63-9.19c-10.79-6.12-19.29-14.45-25.5-24.98
	c-6.21-10.52-9.32-22.52-9.32-35.98c0-13.47,3.15-25.46,9.45-35.99c6.3-10.53,14.84-18.86,25.63-24.98
	c10.79-6.13,22.91-9.19,36.38-9.19c13.81,0,26.06,3.07,36.76,9.19c10.7,6.13,19.16,14.46,25.37,24.98
	c6.21,10.53,9.32,22.52,9.32,35.99c0,13.29-3.15,25.24-9.45,35.86c-6.3,10.62-14.8,18.99-25.5,25.11
	C741,149.96,728.83,153.03,715.2,153.03 M739.53,56.58c-6.21-6.81-14.33-10.23-24.34-10.23c-9.84,0-17.86,3.41-24.08,10.23
	c-6.22,6.82-9.32,15.58-9.32,26.28c0,10.7,3.11,19.46,9.32,26.28c6.21,6.82,14.24,10.23,24.08,10.23c10.01,0,18.12-3.41,24.34-10.23
	c6.22-6.82,9.32-15.57,9.32-26.28C748.86,72.17,745.75,63.41,739.53,56.58"/>
<path style="fill:#C93733;" d="M122.05,152H86.59V74.75c0-14.1-11.47-25.56-25.57-25.56S35.46,60.66,35.46,74.75V152H0V74.75
	C0,41.1,27.38,13.73,61.02,13.73s61.02,27.38,61.02,61.02V152z"/>
<path style="fill:#C93733;" d="M921.59,152h-35.46V70.66c0-11.84-9.63-21.47-21.47-21.47c-11.84,0-21.47,9.63-21.47,21.47V152
	h-35.46V70.66c0-31.39,25.54-56.93,56.93-56.93c31.39,0,56.93,25.54,56.93,56.93V152z"/>
<path style="fill:#C93733;" d="M1000,152h-35.46V70.66c0-11.84-9.63-21.47-21.47-21.47c-11.84,0-21.47,9.63-21.47,21.47V152h-35.46
	V70.66c0-31.39,25.54-56.93,56.93-56.93c31.39,0,56.93,25.54,56.93,56.93V152z"/>
</svg>
