<svg width="388" height="388" viewBox="0 0 388 388" fill="none" xmlns="http://www.w3.org/2000/svg">
<path d="M193.997 72.7502C193.997 67.4426 192.951 62.187 190.92 57.2834C188.889 52.3798 185.912 47.9243 182.159 44.1713C178.406 40.4183 173.95 37.4412 169.047 35.4101C164.143 33.3789 158.887 32.3335 153.58 32.3335C144.143 32.3234 135.001 35.6155 127.737 41.6391C120.473 47.6627 115.546 56.0382 113.81 65.3135C108.481 66.312 103.407 68.3725 98.8902 71.3725C94.3737 74.3725 90.5071 78.2505 87.5204 82.7758C84.5337 87.3011 82.4881 92.381 81.5053 97.7132C80.5226 103.045 80.6227 108.521 81.7998 113.814C74.5032 115.109 67.7032 118.385 62.1432 123.285C56.5832 128.185 52.4774 134.518 50.2746 141.594C48.0717 148.67 47.8567 156.215 49.6531 163.405C51.4494 170.595 55.1879 177.152 60.4599 182.36C51.593 186.454 44.1685 193.129 39.1581 201.512C34.1477 209.895 31.7849 219.596 32.3789 229.344C32.9728 239.092 36.4959 248.434 42.4871 256.146C48.4782 263.859 56.6582 269.583 65.9565 272.57C64.1812 279.277 64.1622 286.328 65.9013 293.044C67.6405 299.76 71.0792 305.916 75.8866 310.918C80.6939 315.92 86.708 319.601 93.3499 321.605C99.9918 323.61 107.038 323.871 113.81 322.364C115.607 332.288 121.049 341.182 129.069 347.299C137.088 353.416 147.105 356.313 157.151 355.422C167.198 354.53 176.548 349.915 183.365 342.482C190.183 335.049 193.975 325.336 193.997 315.25M193.997 72.7502V315.25M193.997 72.7502C193.997 62.031 198.255 51.7509 205.834 44.1713C213.414 36.5917 223.694 32.3335 234.413 32.3335C243.85 32.3234 252.992 35.6155 260.256 41.6391C267.52 47.6627 272.447 56.0382 274.183 65.3135C279.512 66.312 284.586 68.3725 289.103 71.3725C293.619 74.3725 297.486 78.2505 300.473 82.7758C303.459 87.3011 305.505 92.381 306.488 97.7132C307.47 103.045 307.37 108.521 306.193 113.814C313.49 115.109 320.29 118.385 325.85 123.285C331.41 128.185 335.516 134.518 337.718 141.594C339.921 148.67 340.136 156.215 338.34 163.405C336.544 170.595 332.805 177.152 327.533 182.36C336.4 186.454 343.825 193.129 348.835 201.512C353.845 209.895 356.208 219.596 355.614 229.344C355.02 239.092 351.497 248.434 345.506 256.146C339.515 263.859 331.335 269.583 322.037 272.57C323.812 279.277 323.831 286.328 322.092 293.044C320.353 299.76 316.914 305.916 312.106 310.918C307.299 315.92 301.285 319.601 294.643 321.605C288.001 323.61 280.955 323.871 274.183 322.364C272.386 332.288 266.944 341.182 258.924 347.299C250.905 353.416 240.888 356.313 230.842 355.422C220.795 354.53 211.445 349.915 204.628 342.482C197.81 335.049 194.018 325.336 193.997 315.25" stroke="#C33531" stroke-width="3.30917" stroke-linecap="round" stroke-linejoin="round"/>
</svg>
