<svg width="66" height="66" viewBox="0 0 66 66" fill="none" xmlns="http://www.w3.org/2000/svg">
<path d="M27.5 41.25L41.7725 33L27.5 24.75V41.25ZM59.29 19.7175C59.6475 21.01 59.895 22.7425 60.06 24.9425C60.2525 27.1425 60.335 29.04 60.335 30.69L60.5 33C60.5 39.0225 60.06 43.45 59.29 46.2825C58.6025 48.7575 57.0075 50.3525 54.5325 51.04C53.24 51.3975 50.875 51.645 47.245 51.81C43.67 52.0025 40.3975 52.085 37.3725 52.085L33 52.25C21.4775 52.25 14.3 51.81 11.4675 51.04C8.9925 50.3525 7.3975 48.7575 6.71 46.2825C6.3525 44.99 6.105 43.2575 5.94 41.0575C5.7475 38.8575 5.665 36.96 5.665 35.31L5.5 33C5.5 26.9775 5.94 22.55 6.71 19.7175C7.3975 17.2425 8.9925 15.6475 11.4675 14.96C12.76 14.6025 15.125 14.355 18.755 14.19C22.33 13.9975 25.6025 13.915 28.6275 13.915L33 13.75C44.5225 13.75 51.7 14.19 54.5325 14.96C57.0075 15.6475 58.6025 17.2425 59.29 19.7175Z" fill="#C33531"/>
</svg>
