<svg width="165" height="24" viewBox="0 0 165 24" fill="none" xmlns="http://www.w3.org/2000/svg">
<g style="mix-blend-mode:multiply">
<path d="M43.3507 23.3031H37.8507L37.7651 20.3525C37.1205 21.501 36.1568 22.4296 34.9953 23.0215C33.7172 23.6871 32.2981 24.0227 30.8628 23.9989C28.6181 23.9989 26.8357 23.3691 25.5158 22.1095C24.1959 20.8499 23.5349 19.1628 23.5327 17.0482C23.5327 14.8509 24.3282 13.0789 25.919 11.7321C27.5099 10.3853 29.6115 9.71475 32.2239 9.72034C34.2119 9.72034 36.0019 10.0556 37.5939 10.7262C37.5643 7.16651 35.7463 5.38721 32.1399 5.38833C29.7536 5.38833 27.4808 6.11145 25.3216 7.55769L24.8542 2.654C25.9902 1.92608 27.2347 1.39102 28.5391 1.06974C29.9784 0.68196 31.4608 0.484747 32.9496 0.482971C36.33 0.482971 38.9083 1.34412 40.6846 3.06642C42.4609 4.78871 43.3485 7.28442 43.3474 10.5535L43.3507 23.3031ZM36.2131 18.2217C37.0503 17.2963 37.5122 16.011 37.5989 14.3658C36.2847 13.7736 34.8605 13.4774 33.4236 13.4974C32.0873 13.4974 31.057 13.7651 30.3329 14.3005C29.6088 14.8358 29.2467 15.6098 29.2467 16.6224C29.2467 17.578 29.5523 18.3162 30.1634 18.837C30.7745 19.3578 31.6051 19.6182 32.6551 19.6182C34.1889 19.616 35.3749 19.1505 36.2131 18.2217Z" fill="white"/>
<path d="M46.927 17.1409C49.0622 18.5484 51.5431 19.3153 54.086 19.3539C56.5283 19.3539 57.7499 18.6453 57.751 17.2281C57.7619 16.9231 57.6974 16.6202 57.5634 16.3472C57.4294 16.0742 57.2302 15.8398 56.9841 15.6656C56.4729 15.2901 55.4075 14.8704 53.7881 14.4066C51.1747 13.6835 49.321 12.7866 48.2272 11.7159C47.1333 10.6452 46.5847 9.18384 46.5814 7.3319C46.5814 5.1916 47.3697 3.51513 48.9463 2.30248C50.523 1.08983 52.6937 0.480156 55.4585 0.47345C56.8324 0.476831 58.2016 0.638235 59.54 0.954597C60.9037 1.27313 62.0256 1.6928 62.9055 2.21363L62.1814 6.81387C60.0518 5.68504 57.9074 5.12063 55.7482 5.12063C53.6175 5.12063 52.5522 5.78619 52.5522 7.11731C52.5467 7.42019 52.6184 7.71934 52.7603 7.98555C52.9022 8.25176 53.1095 8.47594 53.3619 8.6362C53.9017 9.01396 54.91 9.40514 56.3867 9.80973C59.1143 10.6122 61.054 11.5656 62.2061 12.6698C63.3581 13.774 63.9335 15.2644 63.9324 17.1409C63.9324 19.2533 63.0871 20.9242 61.3964 22.1536C59.7056 23.383 57.3835 23.9977 54.4299 23.9977C52.8697 23.998 51.316 23.7935 49.8071 23.3892C48.2886 22.9857 47.0746 22.4649 46.165 21.8267L46.927 17.1409Z" fill="white"/>
<path d="M66.1851 17.1409C68.3195 18.5487 70.7999 19.3156 73.3424 19.3539C75.7858 19.3539 77.0075 18.6453 77.0075 17.2281C77.0186 16.923 76.9542 16.62 76.8202 16.347C76.6861 16.0739 76.4868 15.8396 76.2405 15.6656C75.7282 15.2901 74.6628 14.8704 73.0445 14.4066C70.4311 13.6835 68.578 12.7866 67.4852 11.7159C66.3924 10.6452 65.8438 9.18384 65.8395 7.3319C65.8395 5.1916 66.6278 3.51513 68.2044 2.30248C69.781 1.08983 71.9501 0.480156 74.7116 0.47345C76.0867 0.476392 77.457 0.6378 78.7964 0.954597C80.1612 1.27313 81.2836 1.6928 82.1636 2.21363L81.4394 6.81387C79.3087 5.68504 77.1638 5.12063 75.0046 5.12063C72.875 5.12063 71.8097 5.78619 71.8086 7.11731C71.8031 7.42019 71.8748 7.71934 72.0167 7.98555C72.1587 8.25176 72.3659 8.47594 72.6183 8.6362C73.1581 9.01396 74.1669 9.40514 75.6448 9.80973C78.3701 10.6122 80.3083 11.5656 81.4592 12.6698C82.6101 13.774 83.185 15.2644 83.1839 17.1409C83.1839 19.2533 82.3391 20.9242 80.6495 22.1536C78.9598 23.383 76.6377 23.9977 73.6831 23.9977C72.1223 23.998 70.568 23.7935 69.0585 23.3892C67.539 22.9857 66.325 22.4649 65.4165 21.8267L66.1851 17.1409Z" fill="white"/>
<path d="M86.53 6.20383C87.529 4.44821 88.99 3.01216 90.748 2.05791C92.5518 1.05985 94.6325 0.560822 96.9903 0.560822C98.2748 0.565098 99.5546 0.71808 100.805 1.01682C101.946 1.26196 103.044 1.67895 104.064 2.25406L103.297 7.54836C101.517 6.66863 99.5657 6.21014 97.5877 6.20718C95.6556 6.20718 94.1196 6.74254 92.9797 7.81324C91.8397 8.88395 91.2736 10.3419 91.2813 12.1872C91.2813 14.0704 91.8567 15.5463 93.0076 16.6147C94.1586 17.6832 95.756 18.2191 97.8 18.2225C98.7524 18.2211 99.7022 18.1194 100.634 17.919C101.666 17.6879 102.672 17.3509 103.637 16.9131L104.319 22.1236C103.255 22.7157 102.115 23.152 100.932 23.4195C99.6535 23.7216 98.3455 23.8746 97.0331 23.8755C94.6194 23.8755 92.5106 23.405 90.7069 22.4639C88.9528 21.5724 87.4934 20.1771 86.5086 18.4505C85.5146 16.7136 85.0176 14.6734 85.0176 12.3297C85.0176 10.0117 85.5217 7.96971 86.53 6.20383Z" fill="white"/>
<path d="M117.7 23.9999C115.456 23.9999 113.446 23.4858 111.67 22.4576C109.93 21.4663 108.481 20.0194 107.474 18.2664C106.452 16.5027 105.941 14.491 105.94 12.2311C105.939 9.9712 106.457 7.95943 107.495 6.19578C108.516 4.44568 109.97 3.00015 111.713 2.0046C113.541 0.964359 115.606 0.432979 117.7 0.463925C119.972 0.463925 121.988 0.977482 123.75 2.0046C125.481 3.00173 126.921 4.44778 127.925 6.19578C128.949 7.96055 129.46 9.97232 129.459 12.2311C129.491 14.3049 128.974 16.3493 127.962 18.149C126.95 19.9486 125.48 21.437 123.707 22.4576C121.946 23.4858 119.944 23.9999 117.7 23.9999ZM121.704 7.82867C120.683 6.68643 119.348 6.11531 117.7 6.11531C116.081 6.11531 114.76 6.68643 113.737 7.82867C112.715 8.9709 112.204 10.4406 112.204 12.2378C112.204 14.0316 112.715 15.4996 113.737 16.6419C114.76 17.7841 116.081 18.3558 117.7 18.3569C119.346 18.3569 120.681 17.7852 121.704 16.6419C122.728 15.4985 123.24 14.0305 123.24 12.2378C123.24 10.444 122.728 8.97426 121.704 7.82867Z" fill="white"/>
<path d="M20.0853 23.304H14.2495V10.355C14.2606 9.78501 14.1599 9.21852 13.9534 8.68866C13.747 8.1588 13.4388 7.67621 13.047 7.26914C12.6553 6.86207 12.1877 6.53869 11.6717 6.31793C11.1558 6.09717 10.6018 5.98346 10.0422 5.98346C9.48253 5.98346 8.92852 6.09717 8.41256 6.31793C7.8966 6.53869 7.42904 6.86207 7.03726 7.26914C6.64547 7.67621 6.33733 8.1588 6.13086 8.68866C5.9244 9.21852 5.82375 9.78501 5.83482 10.355V23.304H-0.000976562V10.355C-0.000976563 7.64163 1.05714 5.03942 2.94059 3.12079C4.82404 1.20217 7.37855 0.124298 10.0422 0.124298C12.7058 0.124298 15.2603 1.20217 17.1437 3.12079C19.0272 5.03942 20.0853 7.64163 20.0853 10.355V23.304Z" fill="white"/>
<path d="M151.669 23.304H145.833V9.6726C145.833 8.71799 145.461 7.80247 144.798 7.12745C144.136 6.45244 143.237 6.07322 142.3 6.07322C141.363 6.07322 140.464 6.45244 139.801 7.12745C139.139 7.80247 138.766 8.71799 138.766 9.6726V23.3074H132.931V9.6726C132.931 7.14134 133.918 4.71374 135.675 2.92387C137.432 1.13399 139.815 0.128448 142.3 0.128448C144.785 0.128448 147.168 1.13399 148.925 2.92387C150.682 4.71374 151.669 7.14134 151.669 9.6726V23.304Z" fill="white"/>
<path d="M164.568 23.3037H158.733V9.67234C158.743 9.19301 158.659 8.71644 158.486 8.27059C158.313 7.82474 158.054 7.41857 157.725 7.07592C157.396 6.73327 157.003 6.46103 156.569 6.27517C156.135 6.08931 155.669 5.99358 155.198 5.99358C154.728 5.99358 154.262 6.08931 153.828 6.27517C153.394 6.46103 153.001 6.73327 152.672 7.07592C152.343 7.41857 152.084 7.82474 151.911 8.27059C151.738 8.71644 151.654 9.19301 151.664 9.67234V23.3071H145.828V9.67234C145.812 8.40822 146.042 7.15338 146.506 5.98064C146.969 4.8079 147.657 3.74063 148.529 2.84078C149.4 1.94094 150.439 1.22645 151.584 0.738783C152.729 0.251119 153.957 0 155.198 0C156.44 0 157.668 0.251119 158.813 0.738783C159.958 1.22645 160.997 1.94094 161.868 2.84078C162.74 3.74063 163.428 4.8079 163.891 5.98064C164.355 7.15338 164.585 8.40822 164.568 9.67234V23.3037Z" fill="white"/>
</g>
</svg>
