<svg width="62" height="62" viewBox="0 0 62 62" fill="none" xmlns="http://www.w3.org/2000/svg">
<path d="M33.6555 5.16919C35.5407 5.16196 37.4258 5.18091 39.3104 5.22603L39.8116 5.24411C40.3903 5.26478 40.9612 5.29061 41.6509 5.32161C44.3996 5.45078 46.2751 5.88478 47.9207 6.52286C49.6257 7.17903 51.062 8.06769 52.4984 9.50403C53.8117 10.7947 54.8281 12.3559 55.477 14.0791C56.115 15.7247 56.549 17.6028 56.6782 20.3514C56.7092 21.0386 56.735 21.6121 56.7557 22.1908L56.7712 22.6919C56.8171 24.5757 56.8369 26.46 56.8306 28.3443L56.8332 30.2714V33.6556C56.8396 35.5408 56.8198 37.4259 56.7738 39.3105L56.7583 39.8117C56.7376 40.3904 56.7118 40.9613 56.6808 41.651C56.5516 44.3997 56.1125 46.2752 55.477 47.9208C54.8302 49.6458 53.8135 51.2083 52.4984 52.4984C51.2066 53.8116 49.6446 54.828 47.9207 55.477C46.2751 56.1151 44.3996 56.5491 41.6509 56.6783C40.9612 56.7093 40.3903 56.7351 39.8116 56.7558L39.3104 56.7713C37.4258 56.8172 35.5407 56.837 33.6555 56.8307L31.7284 56.8333H28.3468C26.4616 56.8396 24.5765 56.8198 22.6919 56.7739L22.1907 56.7584C21.5774 56.7361 20.9643 56.7103 20.3514 56.6809C17.6027 56.5517 15.7272 56.1125 14.079 55.477C12.3551 54.8295 10.7936 53.8129 9.50395 52.4984C8.18915 51.2075 7.17178 49.6453 6.52278 47.9208C5.8847 46.2752 5.4507 44.3997 5.32153 41.651C5.29276 41.038 5.26693 40.4249 5.24403 39.8117L5.23111 39.3105C5.18349 37.4259 5.16196 35.5408 5.16653 33.6556V28.3443C5.15932 26.46 5.17827 24.5757 5.22336 22.6919L5.24145 22.1908C5.26211 21.6121 5.28795 21.0386 5.31895 20.3514C5.44811 17.6002 5.88211 15.7273 6.5202 14.0791C7.16958 12.355 8.18894 10.7943 9.50653 9.50661C10.7953 8.19105 12.3558 7.17276 14.079 6.52286C15.7272 5.88478 17.6001 5.45078 20.3514 5.32161L22.1907 5.24411L22.6919 5.23119C24.5756 5.18359 26.4599 5.16206 28.3442 5.16661L33.6555 5.16919ZM30.9999 18.0859C29.2884 18.0617 27.5892 18.3778 26.0011 19.016C24.4129 19.6542 22.9674 20.6017 21.7485 21.8034C20.5297 23.0051 19.5619 24.4371 18.9013 26.0161C18.2407 27.5951 17.9005 29.2896 17.9005 31.0012C17.9005 32.7128 18.2407 34.4074 18.9013 35.9864C19.5619 37.5654 20.5297 38.9973 21.7485 40.1991C22.9674 41.4008 24.4129 42.3482 26.0011 42.9864C27.5892 43.6246 29.2884 43.9408 30.9999 43.9166C34.4256 43.9166 37.711 42.5558 40.1333 40.1334C42.5557 37.7111 43.9165 34.4257 43.9165 30.9999C43.9165 27.5742 42.5557 24.2888 40.1333 21.8665C37.711 19.4441 34.4256 18.0859 30.9999 18.0859ZM30.9999 23.2525C32.0293 23.2336 33.0523 23.4199 34.0089 23.8007C34.9656 24.1815 35.8367 24.7492 36.5715 25.4704C37.3064 26.1917 37.8901 27.0522 38.2886 28.0016C38.6871 28.951 38.8925 29.9703 38.8926 30.9999C38.8928 32.0296 38.6878 33.0489 38.2896 33.9985C37.8914 34.948 37.308 35.8087 36.5734 36.5302C35.8388 37.2517 34.9678 37.8196 34.0113 38.2007C33.0548 38.5819 32.0319 38.7686 31.0024 38.7499C28.947 38.7499 26.9758 37.9334 25.5224 36.48C24.069 35.0266 23.2524 33.0554 23.2524 30.9999C23.2524 28.9445 24.069 26.9733 25.5224 25.5199C26.9758 24.0665 28.947 23.2499 31.0024 23.2499L30.9999 23.2525ZM44.5624 14.2109C43.729 14.2442 42.9408 14.5987 42.3629 15.2002C41.7851 15.8017 41.4623 16.6034 41.4623 17.4374C41.4623 18.2715 41.7851 19.0732 42.3629 19.6747C42.9408 20.2761 43.729 20.6307 44.5624 20.664C45.4188 20.664 46.2402 20.3238 46.8457 19.7182C47.4513 19.1126 47.7915 18.2913 47.7915 17.4349C47.7915 16.5784 47.4513 15.7571 46.8457 15.1515C46.2402 14.5459 45.4188 14.2057 44.5624 14.2057V14.2109Z" fill="#E8E8E8"/>
</svg>
